<?xml version="1.0" standalone="no"?><svg xmlns="http://www.w3.org/2000/svg" viewBox="0 0 1440 320"><path fill="#4ac4f3" fill-opacity="1" d="M0,224L30,208C60,192,120,160,180,170.7C240,181,300,235,360,240C420,245,480,203,540,181.3C600,160,660,160,720,181.3C780,203,840,245,900,266.7C960,288,1020,288,1080,240C1140,192,1200,96,1260,74.7C1320,53,1380,107,1410,133.3L1440,160L1440,0L1410,0C1380,0,1320,0,1260,0C1200,0,1140,0,1080,0C1020,0,960,0,900,0C840,0,780,0,720,0C660,0,600,0,540,0C480,0,420,0,360,0C300,0,240,0,180,0C120,0,60,0,30,0L0,0Z"></path></svg>